<?xml version="1.0" encoding="iso-8859-1"?>
<!-- Uploaded to: SVG Repo, www.svgrepo.com, Generator: SVG Repo Mixer Tools -->
<!DOCTYPE svg PUBLIC "-//W3C//DTD SVG 1.1//EN" "http://www.w3.org/Graphics/SVG/1.1/DTD/svg11.dtd">
<svg fill="#000000" version="1.1" id="Capa_1" xmlns="http://www.w3.org/2000/svg" xmlns:xlink="http://www.w3.org/1999/xlink" 
	 width="800px" height="800px" viewBox="0 0 588.6 588.6" xml:space="preserve"
	>
<g>
	<path d="M359.036,537.775c0.771,0.053,1.551,0.116,2.342,0.116h178.2c20.84,0,37.8-16.96,37.8-37.801V86.994
		c0-20.838-16.96-37.8-37.8-37.8h-178.2c-0.786,0-1.571,0.071-2.342,0.113V0L11.222,46.417v494.564L359.036,588.6V537.775z
		 M361.378,70.798h178.2c8.933,0,16.199,7.27,16.199,16.2v413.103c0,8.934-7.267,16.2-16.199,16.2h-178.2
		c-0.797,0-1.571-0.127-2.342-0.242v-149.64c6.703-2.057,12.862-5.221,18.437-9.556c10.642-8.247,21.905-22.707,33.812-43.368
		h61.637l4.63,55.751l51.911-8.596l1.461-7.468c-7.535,0.454-11.949,0.686-13.226,0.686c-7.167,0-12.113-2.885-14.871-8.659
		c-2.764-5.769-4.889-17.75-6.396-35.922l-6.561-78.195l-1.471-37.687l-23.062,4.185c-7.467,0.602-13.035,1.016-16.743,1.242
		c-18.467,1.281-32.563,4.116-42.293,8.49c-9.713,4.379-18.156,11.738-25.317,22.074c-6.486,9.284-10.446,21.022-11.876,35.208
		l22.159-10.989c0-14.634,4.282-25.893,12.846-33.782c8.554-7.889,20.715-11.825,36.472-11.825c5.874,0,12.925,0.49,21.136,1.469
		l-48.731,84.232c-13.569,23.514-25.233,39.898-34.989,49.138c-6.064,5.728-12.388,9.677-18.958,11.845V71.031
		C359.807,70.917,360.576,70.798,361.378,70.798z M416.147,305.126l48.748-85.013l7.235,85.013H416.147z M85.862,361.715
		c-30.499-0.812-47.946-25.744-47.946-56.842c0-32.725,19.256-57.699,49.652-58.493c32.545-0.859,50.733,24.959,50.733,56.516
		C138.301,340.39,116.777,362.543,85.862,361.715z M229.35,267.187l-31.892,0.509v95.096l-25.871-0.675v-94.018l-29.858,0.469
		v-21.745l87.626-2.241v22.605H229.35z M271.244,364.706l-27.551-0.712V244.215l75.708-1.927v22.934l-48.157,0.765v27.686
		l44.94-0.185v22.718l-44.94-0.237V364.706z"/>
	<path d="M86.945,266.44c-15.831,0.277-24.94,16.488-24.94,37.953c0,21.621,9.416,37.02,25.099,37.294
		c16.065,0.29,25.373-15.989,25.373-37.953C112.482,283.453,103.325,266.171,86.945,266.44z"/>
</g>
</svg>