<?xml version="1.0" standalone="no"?>
<!DOCTYPE svg PUBLIC "-//W3C//DTD SVG 20010904//EN"
 "http://www.w3.org/TR/2001/REC-SVG-20010904/DTD/svg10.dtd">
<svg version="1.0" xmlns="http://www.w3.org/2000/svg"
 width="50.000000pt" height="50.000000pt" viewBox="0 0 50.000000 50.000000"
 preserveAspectRatio="xMidYMid meet">

<g transform="translate(0.000000,50.000000) scale(0.100000,-0.100000)"
fill="#000000" stroke="none">
<path d="M152 249 c-51 -89 -90 -164 -88 -167 14 -13 38 18 106 137 40 72 77
131 80 131 5 0 32 -44 110 -182 21 -39 28 -58 18 -58 -7 0 -38 45 -68 100 -30
55 -57 100 -60 100 -3 0 -33 -51 -67 -112 l-63 -113 43 -3 c41 -3 64 11 80 51
4 9 8 8 16 -3 7 -11 6 -17 -4 -23 -27 -15 -15 -27 26 -27 l40 0 -32 60 c-17
33 -35 60 -39 60 -4 0 -18 -20 -31 -45 -13 -25 -30 -45 -37 -45 -9 0 0 24 24
70 21 39 41 70 44 70 3 0 26 -37 50 -82 l45 -83 49 -3 c26 -2 46 1 45 6 -11
26 -184 322 -189 322 -3 0 -47 -73 -98 -161z"/>
</g>
</svg>
